- 
http://www.Speed.Cd
 
http://www.Speed.Cd       the fast  and The Hottest Private Tracker on the net

Please Seed back to make the speed Faster!!
 ............ NFO .............
-General
Unique ID                                : 207867358490556012666501628601909118797 (0x9C61CC095B2DEBB4A9C1C84767A0074D)
Complete name                            : American.Horror.Story.S02E05.I.Am.Anne.Frank.Part.2.1080p.WEB-DL.DD5.1.H.264-ECI.mkv
Format                                   : Matroska
Format version                           : Version 2
File size                                : 1.74 GiB
Duration                                 : 43mn 16s
Overall bit rate                         : 5 741 Kbps
Encoded date                             : UTC 2012-11-16 16:52:38
Writing application                      : mkvmerge v5.8.0 ('No Sleep / Pillow') built on Sep  2 2012 15:37:04
Writing library                          : libebml v1.2.3 + libmatroska v1.3.0

Video
ID                                       : 1
Format                                   : AVC
Format/Info                              : Advanced Video Codec
Format profile                           : High@L4.0
Format settings, CABAC                   : Yes
Format settings, ReFrames                : 4 frames
Codec ID                                 : V_MPEG4/ISO/AVC
Duration                                 : 43mn 16s
Bit rate                                 : 5 243 Kbps
Width                                    : 1 912 pixels
Height                                   : 1 072 pixels
Display aspect ratio                     : 16:9
Frame rate mode                          : Constant
Frame rate                               : 23.976 fps
Color space                              : YUV
Chroma subsampling                       : 4:2:0
Bit depth                                : 8 bits
Scan type                                : Progressive
Bits/(Pixel*Frame)                       : 0.107
Stream size                              : 1.58 GiB (91%)
Language                                 : English
Default                                  : Yes
Forced                                   : No
Color primaries                          : BT.709
Transfer characteristics                 : BT.709
Matrix coefficients                      : BT.709

Audio
ID                                       : 2
Format                                   : AC-3
Format/Info                              : Audio Coding 3
Mode extension                           : CM (complete main)
Format settings, Endianness              : Big
Codec ID                                 : A_AC3
Duration                                 : 43mn 16s
Bit rate mode                            : Constant
Bit rate                                 : 384 Kbps
Channel(s)                               : 6 channels
Channel positions                        : Front: L C R, Side: L R, LFE
Sampling rate                            : 48.0 KHz
Bit depth                                : 16 bits
Compression mode                         : Lossy
Stream size                              : 119 MiB (7%)
Language                                 : English
Default                                  : Yes
Forced                                   : No